<mxfile host="Electron" modified="2024-02-07T15:04:40.800Z" agent="Mozilla/5.0 (Windows NT 10.0; Win64; x64) AppleWebKit/537.36 (KHTML, like Gecko) draw.io/22.1.2 Chrome/114.0.5735.289 Electron/25.9.4 Safari/537.36" etag="-qwimK3yFUz5LwJCOERv" version="22.1.2" type="device">
  <diagram name="Page-1" id="GXH7HksNQJkOH-qJe8ID">
    <mxGraphModel dx="1216" dy="601" grid="1" gridSize="10" guides="1" tooltips="1" connect="1" arrows="1" fold="1" page="1" pageScale="1" pageWidth="850" pageHeight="1100" math="0" shadow="0">
      <root>
        <mxCell id="0" />
        <mxCell id="1" parent="0" />
        <mxCell id="y1fXWGU0vIESQ1dCH3lC-1" value="us-east-1Region" style="points=[[0,0],[0.25,0],[0.5,0],[0.75,0],[1,0],[1,0.25],[1,0.5],[1,0.75],[1,1],[0.75,1],[0.5,1],[0.25,1],[0,1],[0,0.75],[0,0.5],[0,0.25]];outlineConnect=0;gradientColor=none;html=1;whiteSpace=wrap;fontSize=12;fontStyle=0;container=1;pointerEvents=0;collapsible=0;recursiveResize=0;shape=mxgraph.aws4.group;grIcon=mxgraph.aws4.group_region;strokeColor=#00A4A6;fillColor=none;verticalAlign=top;align=left;spacingLeft=30;fontColor=#147EBA;dashed=1;" parent="1" vertex="1">
          <mxGeometry x="131" y="253" width="560" height="780" as="geometry" />
        </mxCell>
        <mxCell id="y1fXWGU0vIESQ1dCH3lC-14" value="DEV-vpc-2" style="points=[[0,0],[0.25,0],[0.5,0],[0.75,0],[1,0],[1,0.25],[1,0.5],[1,0.75],[1,1],[0.75,1],[0.5,1],[0.25,1],[0,1],[0,0.75],[0,0.5],[0,0.25]];outlineConnect=0;gradientColor=none;html=1;whiteSpace=wrap;fontSize=12;fontStyle=0;container=1;pointerEvents=0;collapsible=0;recursiveResize=0;shape=mxgraph.aws4.group;grIcon=mxgraph.aws4.group_vpc2;strokeColor=#8C4FFF;fillColor=none;verticalAlign=top;align=left;spacingLeft=30;fontColor=#AAB7B8;dashed=0;" parent="y1fXWGU0vIESQ1dCH3lC-1" vertex="1">
          <mxGeometry x="320" y="568" width="210" height="200" as="geometry" />
        </mxCell>
        <mxCell id="y1fXWGU0vIESQ1dCH3lC-45" value="13.0.0.0/16" style="text;html=1;align=center;verticalAlign=middle;resizable=0;points=[];autosize=1;strokeColor=none;fillColor=none;" parent="y1fXWGU0vIESQ1dCH3lC-14" vertex="1">
          <mxGeometry x="20" y="30" width="80" height="30" as="geometry" />
        </mxCell>
        <mxCell id="1Atnoubjokcd63XYgQ4R-5" value="DEV-subnet-2" style="points=[[0,0],[0.25,0],[0.5,0],[0.75,0],[1,0],[1,0.25],[1,0.5],[1,0.75],[1,1],[0.75,1],[0.5,1],[0.25,1],[0,1],[0,0.75],[0,0.5],[0,0.25]];outlineConnect=0;gradientColor=none;html=1;whiteSpace=wrap;fontSize=12;fontStyle=0;container=1;pointerEvents=0;collapsible=0;recursiveResize=0;shape=mxgraph.aws4.group;grIcon=mxgraph.aws4.group_security_group;grStroke=0;strokeColor=#00A4A6;fillColor=#E6F6F7;verticalAlign=top;align=left;spacingLeft=30;fontColor=#147EBA;dashed=0;" vertex="1" parent="y1fXWGU0vIESQ1dCH3lC-14">
          <mxGeometry x="5" y="64" width="200" height="123" as="geometry" />
        </mxCell>
        <mxCell id="1Atnoubjokcd63XYgQ4R-33" value="DEV-ec2-2" style="sketch=0;points=[[0,0,0],[0.25,0,0],[0.5,0,0],[0.75,0,0],[1,0,0],[0,1,0],[0.25,1,0],[0.5,1,0],[0.75,1,0],[1,1,0],[0,0.25,0],[0,0.5,0],[0,0.75,0],[1,0.25,0],[1,0.5,0],[1,0.75,0]];outlineConnect=0;fontColor=#232F3E;fillColor=#ED7100;strokeColor=#ffffff;dashed=0;verticalLabelPosition=bottom;verticalAlign=top;align=center;html=1;fontSize=12;fontStyle=0;aspect=fixed;shape=mxgraph.aws4.resourceIcon;resIcon=mxgraph.aws4.ec2;" vertex="1" parent="1Atnoubjokcd63XYgQ4R-5">
          <mxGeometry x="38" y="36.5" width="56" height="56" as="geometry" />
        </mxCell>
        <mxCell id="1Atnoubjokcd63XYgQ4R-35" value="" style="sketch=0;outlineConnect=0;fontColor=#232F3E;gradientColor=none;fillColor=#8C4FFF;strokeColor=none;dashed=0;verticalLabelPosition=bottom;verticalAlign=top;align=center;html=1;fontSize=12;fontStyle=0;aspect=fixed;pointerEvents=1;shape=mxgraph.aws4.route_table;" vertex="1" parent="1Atnoubjokcd63XYgQ4R-5">
          <mxGeometry x="130.60000000000002" y="39.5" width="51.32" height="50" as="geometry" />
        </mxCell>
        <mxCell id="1Atnoubjokcd63XYgQ4R-15" style="edgeStyle=orthogonalEdgeStyle;rounded=0;orthogonalLoop=1;jettySize=auto;html=1;" edge="1" parent="y1fXWGU0vIESQ1dCH3lC-1" source="DpCkxI8PSZB8Ehpu4HjT-7" target="y1fXWGU0vIESQ1dCH3lC-14">
          <mxGeometry relative="1" as="geometry" />
        </mxCell>
        <mxCell id="y1fXWGU0vIESQ1dCH3lC-5" value="&lt;font color=&quot;#ffffff&quot;&gt;DEV-TGW&lt;/font&gt;" style="sketch=0;points=[[0,0,0],[0.25,0,0],[0.5,0,0],[0.75,0,0],[1,0,0],[0,1,0],[0.25,1,0],[0.5,1,0],[0.75,1,0],[1,1,0],[0,0.25,0],[0,0.5,0],[0,0.75,0],[1,0.25,0],[1,0.5,0],[1,0.75,0]];outlineConnect=0;fontColor=#232F3E;fillColor=#8C4FFF;strokeColor=#ffffff;dashed=0;verticalLabelPosition=bottom;verticalAlign=top;align=center;html=1;fontSize=12;fontStyle=0;aspect=fixed;shape=mxgraph.aws4.resourceIcon;resIcon=mxgraph.aws4.transit_gateway;" parent="y1fXWGU0vIESQ1dCH3lC-1" vertex="1">
          <mxGeometry x="242" y="406" width="78" height="78" as="geometry" />
        </mxCell>
        <mxCell id="y1fXWGU0vIESQ1dCH3lC-7" value="DEV-IGW" style="outlineConnect=0;dashed=0;verticalLabelPosition=bottom;verticalAlign=top;align=center;html=1;shape=mxgraph.aws3.internet_gateway;fillColor=#F58534;gradientColor=none;" parent="y1fXWGU0vIESQ1dCH3lC-1" vertex="1">
          <mxGeometry x="350" y="15" width="50" height="50" as="geometry" />
        </mxCell>
        <mxCell id="1Atnoubjokcd63XYgQ4R-7" value="DEV-vpc-1" style="points=[[0,0],[0.25,0],[0.5,0],[0.75,0],[1,0],[1,0.25],[1,0.5],[1,0.75],[1,1],[0.75,1],[0.5,1],[0.25,1],[0,1],[0,0.75],[0,0.5],[0,0.25]];outlineConnect=0;gradientColor=none;html=1;whiteSpace=wrap;fontSize=12;fontStyle=0;container=1;pointerEvents=0;collapsible=0;recursiveResize=0;shape=mxgraph.aws4.group;grIcon=mxgraph.aws4.group_vpc2;strokeColor=#8C4FFF;fillColor=none;verticalAlign=top;align=left;spacingLeft=30;fontColor=#AAB7B8;dashed=0;" vertex="1" parent="y1fXWGU0vIESQ1dCH3lC-1">
          <mxGeometry x="31" y="568" width="210" height="200" as="geometry" />
        </mxCell>
        <mxCell id="1Atnoubjokcd63XYgQ4R-8" value="12.0.0.0/16" style="text;html=1;align=center;verticalAlign=middle;resizable=0;points=[];autosize=1;strokeColor=none;fillColor=none;" vertex="1" parent="1Atnoubjokcd63XYgQ4R-7">
          <mxGeometry x="20" y="30" width="80" height="30" as="geometry" />
        </mxCell>
        <mxCell id="DpCkxI8PSZB8Ehpu4HjT-10" value="&lt;font color=&quot;#ffffff&quot;&gt;Attachment&amp;nbsp; &amp;amp;&lt;br style=&quot;&quot;&gt;&amp;nbsp;Attachment Route table&lt;/font&gt;" style="sketch=0;outlineConnect=0;fontColor=#232F3E;gradientColor=none;strokeColor=#232F3E;fillColor=#ffffff;dashed=0;verticalLabelPosition=bottom;verticalAlign=top;align=center;html=1;fontSize=12;fontStyle=0;aspect=fixed;shape=mxgraph.aws4.resourceIcon;resIcon=mxgraph.aws4.route_table;" parent="y1fXWGU0vIESQ1dCH3lC-1" vertex="1">
          <mxGeometry x="106" y="415" width="60" height="60" as="geometry" />
        </mxCell>
        <mxCell id="1Atnoubjokcd63XYgQ4R-23" value="" style="edgeStyle=orthogonalEdgeStyle;rounded=0;orthogonalLoop=1;jettySize=auto;html=1;entryX=1;entryY=0.5;entryDx=0;entryDy=0;" edge="1" parent="y1fXWGU0vIESQ1dCH3lC-1" source="y1fXWGU0vIESQ1dCH3lC-5" target="DpCkxI8PSZB8Ehpu4HjT-10">
          <mxGeometry relative="1" as="geometry">
            <mxPoint x="376" y="445" as="sourcePoint" />
            <mxPoint x="236" y="738" as="targetPoint" />
          </mxGeometry>
        </mxCell>
        <mxCell id="1Atnoubjokcd63XYgQ4R-16" style="edgeStyle=orthogonalEdgeStyle;rounded=0;orthogonalLoop=1;jettySize=auto;html=1;entryX=0.5;entryY=0;entryDx=0;entryDy=0;" edge="1" parent="y1fXWGU0vIESQ1dCH3lC-1" source="DpCkxI8PSZB8Ehpu4HjT-10" target="1Atnoubjokcd63XYgQ4R-7">
          <mxGeometry relative="1" as="geometry" />
        </mxCell>
        <mxCell id="1Atnoubjokcd63XYgQ4R-24" value="" style="edgeStyle=orthogonalEdgeStyle;rounded=0;orthogonalLoop=1;jettySize=auto;html=1;" edge="1" parent="y1fXWGU0vIESQ1dCH3lC-1" source="y1fXWGU0vIESQ1dCH3lC-5" target="DpCkxI8PSZB8Ehpu4HjT-7">
          <mxGeometry relative="1" as="geometry">
            <mxPoint x="464" y="715" as="sourcePoint" />
            <mxPoint x="695" y="883" as="targetPoint" />
          </mxGeometry>
        </mxCell>
        <mxCell id="DpCkxI8PSZB8Ehpu4HjT-7" value="&lt;font color=&quot;#ffffff&quot;&gt;Attachment&amp;nbsp; &amp;amp;&lt;br style=&quot;&quot;&gt;&amp;nbsp;Attachment Route table&lt;/font&gt;" style="sketch=0;outlineConnect=0;fontColor=#232F3E;gradientColor=none;strokeColor=#232F3E;fillColor=#ffffff;dashed=0;verticalLabelPosition=bottom;verticalAlign=top;align=center;html=1;fontSize=12;fontStyle=0;aspect=fixed;shape=mxgraph.aws4.resourceIcon;resIcon=mxgraph.aws4.route_table;" parent="y1fXWGU0vIESQ1dCH3lC-1" vertex="1">
          <mxGeometry x="395" y="415" width="60" height="60" as="geometry" />
        </mxCell>
        <mxCell id="1Atnoubjokcd63XYgQ4R-25" value="&lt;font color=&quot;#ffffff&quot;&gt;Attachment&amp;nbsp; &amp;amp;&lt;br&gt;&amp;nbsp;Attachment Route table&lt;/font&gt;" style="sketch=0;outlineConnect=0;fontColor=#232F3E;gradientColor=none;strokeColor=#232F3E;fillColor=#ffffff;dashed=0;verticalLabelPosition=bottom;verticalAlign=top;align=center;html=1;fontSize=12;fontStyle=0;aspect=fixed;shape=mxgraph.aws4.resourceIcon;resIcon=mxgraph.aws4.route_table;" vertex="1" parent="y1fXWGU0vIESQ1dCH3lC-1">
          <mxGeometry x="164" y="260" width="60" height="60" as="geometry" />
        </mxCell>
        <mxCell id="1Atnoubjokcd63XYgQ4R-26" value="" style="edgeStyle=orthogonalEdgeStyle;rounded=0;orthogonalLoop=1;jettySize=auto;html=1;exitX=0;exitY=0.25;exitDx=0;exitDy=0;exitPerimeter=0;entryX=0.5;entryY=1;entryDx=0;entryDy=0;" edge="1" parent="y1fXWGU0vIESQ1dCH3lC-1" source="y1fXWGU0vIESQ1dCH3lC-5" target="1Atnoubjokcd63XYgQ4R-25">
          <mxGeometry relative="1" as="geometry">
            <mxPoint x="396" y="361" as="sourcePoint" />
            <mxPoint x="130" y="210" as="targetPoint" />
          </mxGeometry>
        </mxCell>
        <mxCell id="y1fXWGU0vIESQ1dCH3lC-2" value="DEV-vpc-3" style="points=[[0,0],[0.25,0],[0.5,0],[0.75,0],[1,0],[1,0.25],[1,0.5],[1,0.75],[1,1],[0.75,1],[0.5,1],[0.25,1],[0,1],[0,0.75],[0,0.5],[0,0.25]];outlineConnect=0;gradientColor=none;html=1;whiteSpace=wrap;fontSize=12;fontStyle=0;container=1;pointerEvents=0;collapsible=0;recursiveResize=0;shape=mxgraph.aws4.group;grIcon=mxgraph.aws4.group_vpc2;strokeColor=#8C4FFF;fillColor=none;verticalAlign=top;align=left;spacingLeft=30;fontColor=#AAB7B8;dashed=0;" parent="y1fXWGU0vIESQ1dCH3lC-1" vertex="1">
          <mxGeometry x="80" y="50" width="420" height="170" as="geometry" />
        </mxCell>
        <mxCell id="y1fXWGU0vIESQ1dCH3lC-6" value="DEV-subnet-4&lt;br&gt;12.0.1.0/16" style="points=[[0,0],[0.25,0],[0.5,0],[0.75,0],[1,0],[1,0.25],[1,0.5],[1,0.75],[1,1],[0.75,1],[0.5,1],[0.25,1],[0,1],[0,0.75],[0,0.5],[0,0.25]];outlineConnect=0;gradientColor=none;html=1;whiteSpace=wrap;fontSize=12;fontStyle=0;container=1;pointerEvents=0;collapsible=0;recursiveResize=0;shape=mxgraph.aws4.group;grIcon=mxgraph.aws4.group_security_group;grStroke=0;strokeColor=#7AA116;fillColor=#F2F6E8;verticalAlign=top;align=left;spacingLeft=30;fontColor=#248814;dashed=0;" parent="y1fXWGU0vIESQ1dCH3lC-2" vertex="1">
          <mxGeometry x="216" y="51" width="188" height="109" as="geometry" />
        </mxCell>
        <mxCell id="y1fXWGU0vIESQ1dCH3lC-43" value="14.0.0.0/16" style="text;html=1;align=center;verticalAlign=middle;resizable=0;points=[];autosize=1;strokeColor=none;fillColor=none;" parent="y1fXWGU0vIESQ1dCH3lC-2" vertex="1">
          <mxGeometry x="20" y="20" width="80" height="30" as="geometry" />
        </mxCell>
        <mxCell id="1Atnoubjokcd63XYgQ4R-9" value="DEV-subnet-3" style="points=[[0,0],[0.25,0],[0.5,0],[0.75,0],[1,0],[1,0.25],[1,0.5],[1,0.75],[1,1],[0.75,1],[0.5,1],[0.25,1],[0,1],[0,0.75],[0,0.5],[0,0.25]];outlineConnect=0;gradientColor=none;html=1;whiteSpace=wrap;fontSize=12;fontStyle=0;container=1;pointerEvents=0;collapsible=0;recursiveResize=0;shape=mxgraph.aws4.group;grIcon=mxgraph.aws4.group_security_group;grStroke=0;strokeColor=#00A4A6;fillColor=#E6F6F7;verticalAlign=top;align=left;spacingLeft=30;fontColor=#147EBA;dashed=0;" vertex="1" parent="y1fXWGU0vIESQ1dCH3lC-1">
          <mxGeometry x="89" y="102" width="180" height="108" as="geometry" />
        </mxCell>
        <mxCell id="1Atnoubjokcd63XYgQ4R-19" value="DEV-GW" style="sketch=0;outlineConnect=0;fontColor=#232F3E;gradientColor=none;fillColor=#8C4FFF;strokeColor=none;dashed=0;verticalLabelPosition=bottom;verticalAlign=top;align=center;html=1;fontSize=12;fontStyle=0;aspect=fixed;pointerEvents=1;shape=mxgraph.aws4.nat_gateway;" vertex="1" parent="1Atnoubjokcd63XYgQ4R-9">
          <mxGeometry x="278" y="40" width="45" height="45" as="geometry" />
        </mxCell>
        <mxCell id="1Atnoubjokcd63XYgQ4R-37" style="edgeStyle=orthogonalEdgeStyle;rounded=0;orthogonalLoop=1;jettySize=auto;html=1;fillColor=#60a917;strokeColor=#2D7600;" edge="1" parent="1Atnoubjokcd63XYgQ4R-9" source="1Atnoubjokcd63XYgQ4R-36" target="1Atnoubjokcd63XYgQ4R-19">
          <mxGeometry relative="1" as="geometry" />
        </mxCell>
        <mxCell id="1Atnoubjokcd63XYgQ4R-36" value="" style="sketch=0;outlineConnect=0;fontColor=#232F3E;gradientColor=none;fillColor=#8C4FFF;strokeColor=none;dashed=0;verticalLabelPosition=bottom;verticalAlign=top;align=center;html=1;fontSize=12;fontStyle=0;aspect=fixed;pointerEvents=1;shape=mxgraph.aws4.route_table;" vertex="1" parent="1Atnoubjokcd63XYgQ4R-9">
          <mxGeometry x="58" y="34.5" width="57.47" height="56" as="geometry" />
        </mxCell>
        <mxCell id="1Atnoubjokcd63XYgQ4R-17" style="edgeStyle=orthogonalEdgeStyle;rounded=0;orthogonalLoop=1;jettySize=auto;html=1;exitX=0.25;exitY=0;exitDx=0;exitDy=0;exitPerimeter=0;entryX=0.5;entryY=1;entryDx=0;entryDy=0;" edge="1" parent="y1fXWGU0vIESQ1dCH3lC-1" source="1Atnoubjokcd63XYgQ4R-25" target="1Atnoubjokcd63XYgQ4R-9">
          <mxGeometry relative="1" as="geometry" />
        </mxCell>
        <mxCell id="1Atnoubjokcd63XYgQ4R-28" style="edgeStyle=orthogonalEdgeStyle;rounded=0;orthogonalLoop=1;jettySize=auto;html=1;exitX=0.75;exitY=0;exitDx=0;exitDy=0;entryX=1;entryY=0.5;entryDx=0;entryDy=0;entryPerimeter=0;" edge="1" parent="y1fXWGU0vIESQ1dCH3lC-1" source="y1fXWGU0vIESQ1dCH3lC-6" target="y1fXWGU0vIESQ1dCH3lC-7">
          <mxGeometry relative="1" as="geometry" />
        </mxCell>
        <mxCell id="DpCkxI8PSZB8Ehpu4HjT-3" value="Inernet" style="image;aspect=fixed;perimeter=ellipsePerimeter;html=1;align=center;shadow=0;dashed=0;spacingTop=3;image=img/lib/active_directory/internet_cloud.svg;" parent="1" vertex="1">
          <mxGeometry x="419" y="68" width="174.6" height="110" as="geometry" />
        </mxCell>
        <mxCell id="1Atnoubjokcd63XYgQ4R-10" value="DEV-subnet-1" style="points=[[0,0],[0.25,0],[0.5,0],[0.75,0],[1,0],[1,0.25],[1,0.5],[1,0.75],[1,1],[0.75,1],[0.5,1],[0.25,1],[0,1],[0,0.75],[0,0.5],[0,0.25]];outlineConnect=0;gradientColor=none;html=1;whiteSpace=wrap;fontSize=12;fontStyle=0;container=1;pointerEvents=0;collapsible=0;recursiveResize=0;shape=mxgraph.aws4.group;grIcon=mxgraph.aws4.group_security_group;grStroke=0;strokeColor=#00A4A6;fillColor=#E6F6F7;verticalAlign=top;align=left;spacingLeft=30;fontColor=#147EBA;dashed=0;" vertex="1" parent="1">
          <mxGeometry x="167" y="879" width="200" height="123" as="geometry" />
        </mxCell>
        <mxCell id="1Atnoubjokcd63XYgQ4R-13" value="DEV-ec2-1" style="sketch=0;points=[[0,0,0],[0.25,0,0],[0.5,0,0],[0.75,0,0],[1,0,0],[0,1,0],[0.25,1,0],[0.5,1,0],[0.75,1,0],[1,1,0],[0,0.25,0],[0,0.5,0],[0,0.75,0],[1,0.25,0],[1,0.5,0],[1,0.75,0]];outlineConnect=0;fontColor=#232F3E;fillColor=#ED7100;strokeColor=#ffffff;dashed=0;verticalLabelPosition=bottom;verticalAlign=top;align=center;html=1;fontSize=12;fontStyle=0;aspect=fixed;shape=mxgraph.aws4.resourceIcon;resIcon=mxgraph.aws4.ec2;" vertex="1" parent="1Atnoubjokcd63XYgQ4R-10">
          <mxGeometry x="33" y="35" width="56" height="56" as="geometry" />
        </mxCell>
        <mxCell id="1Atnoubjokcd63XYgQ4R-34" value="" style="sketch=0;outlineConnect=0;fontColor=#232F3E;gradientColor=none;fillColor=#8C4FFF;strokeColor=none;dashed=0;verticalLabelPosition=bottom;verticalAlign=top;align=center;html=1;fontSize=12;fontStyle=0;aspect=fixed;pointerEvents=1;shape=mxgraph.aws4.route_table;" vertex="1" parent="1Atnoubjokcd63XYgQ4R-10">
          <mxGeometry x="118" y="39.5" width="51.32" height="50" as="geometry" />
        </mxCell>
        <mxCell id="1Atnoubjokcd63XYgQ4R-29" style="edgeStyle=orthogonalEdgeStyle;rounded=0;orthogonalLoop=1;jettySize=auto;html=1;entryX=0.5;entryY=1;entryDx=0;entryDy=0;" edge="1" parent="1" source="y1fXWGU0vIESQ1dCH3lC-7" target="DpCkxI8PSZB8Ehpu4HjT-3">
          <mxGeometry relative="1" as="geometry" />
        </mxCell>
      </root>
    </mxGraphModel>
  </diagram>
</mxfile>
